<svg width="149" height="60" viewBox="0 0 149 60" fill="none" xmlns="http://www.w3.org/2000/svg">
<path d="M56.5902 21.1991H59.0686V51.8688H58.0794H56.5902H56.0902V52.3688V53.895V54.8716L8.79706 50.3877V29.4597L59.0686 13.5596V14.3598L56.2703 16.69L56.0902 16.8399V17.0742V19.1728V20.6991V21.1991H56.5902ZM87.9383 17.0101V16.783L87.7672 16.6336L85.1726 14.367V13.5614L140.976 31.3666V55.4936H85.1726V54.2766V52.7503V31.3828V21.1991H87.4383H87.9383V20.6991V17.0101Z" fill="white" stroke="white"/>
<path d="M63.0471 49.5793V21.7268C66.6096 19.3186 69.3468 18.1792 72.0569 18.1832C74.7693 18.1872 77.5482 19.3365 81.1941 21.7311V49.5793H63.0471Z" fill="white" stroke="white"/>
<path d="M58.5049 7.27201L58.6961 7.27201L58.8386 7.14439C64.3791 2.17972 68.9075 0.172109 73.5254 0.543203C78.1323 0.913405 82.9509 3.65566 89.0657 8.5385V13.7485L85.1726 12.686V11.7323V11.2357L84.6759 11.2323L56.8774 11.0449V7.27201L58.5049 7.27201Z" fill="white" stroke="white"/>
</svg>
