<svg width="351" height="158" viewBox="0 0 351 158" fill="none" xmlns="http://www.w3.org/2000/svg">
<path d="M133 55.5H139.5V137.5H136.5H133H132.5V138V142V145.444L20 133.55V77.3538L139.5 35.2065V38.782L132.66 45.1336L132.5 45.282V45.5V51V55V55.5H133ZM206 45.332V45.1211L205.849 44.9739L199.5 38.7891V35.2086L332 82.3528V147H199.5V143V139V83V55.5H205.5H206V55V45.332Z" fill="#FFA500" stroke="#FFA500"/>
<path d="M147.5 131.5V57.2478C156.068 50.7417 162.714 47.5852 169.351 47.5961C175.991 47.607 182.735 50.7877 191.5 57.2521V131.5H147.5Z" fill="#FFA500" stroke="#FFA500"/>
<path d="M137.5 19H137.707L137.853 18.8537C150.942 5.77529 161.754 0.37295 172.851 1.36739C183.95 2.36194 195.483 9.75987 210 22.7237V37.8252L199.5 34.6296V31.5V31.0038L199.004 31.0001L133 30.5038V19.0001L137.5 19Z" fill="#FFA500" stroke="#FFA500"/>
</svg>
