<svg width="351" height="158" viewBox="0 0 351 158" fill="none" xmlns="http://www.w3.org/2000/svg">
<path d="M2 73.5L20 80.5" stroke="#FFA500"/>
<path d="M347.5 79L332 87" stroke="#FFA500"/>
<path d="M120.715 32.3142L120.734 31.7265C120.747 31.3431 120.863 30.9625 121.144 30.7021C121.931 29.973 122.931 29.8285 123.668 29.8817C124.104 29.9132 124.478 30.1819 124.748 30.5257L125.062 30.926" stroke="#FFA500"/>
<path d="M127.193 30.4376L127.547 29.239C127.609 29.0286 127.703 28.8273 127.851 28.6643C128.846 27.5644 130.214 27.5841 130.959 27.7612C131.056 27.7842 131.149 27.8205 131.24 27.862L132.12 28.2644" stroke="#FFA500"/>
<path d="M123.629 30.6069L124.031 31.0601C124.293 31.3557 124.634 31.5905 125.027 31.6355C126.128 31.7617 127.013 31.304 127.561 30.8409C127.885 30.5663 128.004 30.1403 127.991 29.7144L127.976 29.2187" stroke="#FFA500"/>
<path d="M117.109 32.6892L117.51 33.1424C117.772 33.4381 118.114 33.6728 118.507 33.7179C119.608 33.8441 120.493 33.3864 121.04 32.9232C121.365 32.6486 121.483 32.2226 121.471 31.7967L121.456 31.301" stroke="#FFA500"/>
<path d="M107.862 36.7655L107.882 36.1777C107.895 35.7944 108.01 35.4137 108.291 35.1534C109.078 34.4242 110.078 34.2798 110.815 34.3329C111.252 34.3644 111.626 34.6331 111.895 34.977L112.209 35.3772" stroke="#FFA500"/>
<path d="M114.341 34.8889L114.694 33.6902C114.757 33.4798 114.851 33.2785 114.998 33.1155C115.993 32.0156 117.361 32.0354 118.107 32.2124C118.204 32.2354 118.297 32.2717 118.388 32.3132L119.268 32.7156" stroke="#FFA500"/>
<path d="M110.777 35.0582L111.178 35.5114C111.44 35.807 111.782 36.0418 112.175 36.0868C113.276 36.213 114.161 35.7553 114.708 35.2922C115.033 35.0175 115.151 34.5916 115.138 34.1657L115.123 33.67" stroke="#FFA500"/>
<path d="M104.256 37.1405L104.658 37.5937C104.92 37.8893 105.261 38.124 105.654 38.1691C106.755 38.2953 107.641 37.8376 108.188 37.3745C108.512 37.0998 108.631 36.6738 108.618 36.248L108.603 35.7522" stroke="#FFA500"/>
<path d="M95.0099 41.2168L95.0295 40.629C95.0422 40.2456 95.1577 39.865 95.4387 39.6047C96.2256 38.8755 97.2259 38.7311 97.9625 38.7842C98.3993 38.8157 98.7731 39.0844 99.0428 39.4283L99.3568 39.8285" stroke="#FFA500"/>
<path d="M101.488 39.3402L101.842 38.1415C101.904 37.9311 101.998 37.7298 102.146 37.5668C103.141 36.4669 104.509 36.4867 105.254 36.6637C105.351 36.6867 105.444 36.723 105.535 36.7645L106.416 37.1669" stroke="#FFA500"/>
<path d="M97.9241 39.5094L98.3258 39.9626C98.5878 40.2583 98.9292 40.493 99.3223 40.5381C100.423 40.6643 101.309 40.2066 101.856 39.7434C102.18 39.4688 102.299 39.0428 102.286 38.6169L102.271 38.1212" stroke="#FFA500"/>
<path d="M91.4037 41.5917L91.8054 42.0449C92.0675 42.3405 92.4089 42.5753 92.8019 42.6203C93.903 42.7465 94.7882 42.2888 95.3353 41.8257C95.6597 41.5511 95.7785 41.1251 95.7656 40.6992L95.7506 40.2035" stroke="#FFA500"/>
<path d="M82.1574 45.668L82.177 45.0803C82.1897 44.6969 82.3052 44.3162 82.5862 44.0559C83.3732 43.3267 84.3734 43.1823 85.11 43.2354C85.5469 43.267 85.9207 43.5356 86.1904 43.8795L86.5043 44.2798" stroke="#FFA500"/>
<path d="M88.6359 43.7914L88.9895 42.5928C89.0516 42.3823 89.1457 42.181 89.2932 42.018C90.2885 40.9182 91.6561 40.9379 92.4016 41.1149C92.4986 41.138 92.5918 41.1742 92.6827 41.2158L93.5631 41.6182" stroke="#FFA500"/>
<path d="M85.0716 43.9607L85.4733 44.4139C85.7353 44.7095 86.0767 44.9442 86.4698 44.9893C87.5708 45.1155 88.456 44.6578 89.0031 44.1947C89.3276 43.92 89.4463 43.494 89.4334 43.0682L89.4184 42.5724" stroke="#FFA500"/>
<path d="M78.5513 46.043L78.953 46.4962C79.215 46.7918 79.5564 47.0266 79.9495 47.0716C81.0505 47.1978 81.9357 46.7401 82.4828 46.277C82.8072 46.0024 82.926 45.5764 82.9131 45.1505L82.8981 44.6548" stroke="#FFA500"/>
<path d="M69.3049 50.1192L69.3245 49.5315C69.3373 49.1481 69.4528 48.7674 69.7337 48.5071C70.5207 47.778 71.5209 47.6335 72.2576 47.6867C72.6944 47.7182 73.0682 47.9869 73.3379 48.3307L73.6518 48.731" stroke="#FFA500"/>
<path d="M75.7834 48.2426L76.137 47.044C76.1991 46.8336 76.2932 46.6323 76.4407 46.4693C77.436 45.3694 78.8037 45.3891 79.5491 45.5662C79.6461 45.5892 79.7394 45.6254 79.8302 45.667L80.7106 46.0694" stroke="#FFA500"/>
<path d="M72.2191 48.412L72.6208 48.8652C72.8828 49.1608 73.2243 49.3955 73.6173 49.4406C74.7183 49.5668 75.6036 49.1091 76.1507 48.6459C76.4751 48.3713 76.5939 47.9453 76.581 47.5195L76.566 47.0237" stroke="#FFA500"/>
<path d="M65.6988 50.4942L66.1005 50.9474C66.3625 51.2431 66.7039 51.4778 67.097 51.5229C68.198 51.6491 69.0832 51.1914 69.6303 50.7282C69.9548 50.4536 70.0735 50.0276 70.0606 49.6017L70.0456 49.106" stroke="#FFA500"/>
<path d="M56.4525 54.5705L56.472 53.9828C56.4848 53.5994 56.6003 53.2187 56.8812 52.9584C57.6682 52.2293 58.6684 52.0848 59.4051 52.138C59.8419 52.1695 60.2157 52.4382 60.4854 52.782L60.7993 53.1823" stroke="#FFA500"/>
<path d="M62.9309 52.6939L63.2845 51.4953C63.3465 51.2849 63.4407 51.0836 63.5882 50.9206C64.5835 49.8207 65.9511 49.8404 66.6966 50.0174C66.7936 50.0405 66.8868 50.0767 66.9777 50.1183L67.858 50.5207" stroke="#FFA500"/>
<path d="M59.3666 52.8632L59.7683 53.3164C60.0304 53.612 60.3718 53.8468 60.7648 53.8918C61.8659 54.018 62.7511 53.5603 63.2982 53.0972C63.6226 52.8225 63.7414 52.3966 63.7285 51.9707L63.7135 51.475" stroke="#FFA500"/>
<path d="M52.8463 54.9455L53.248 55.3987C53.51 55.6944 53.8515 55.9291 54.2445 55.9741C55.3455 56.1004 56.2308 55.6426 56.7779 55.1795C57.1023 54.9049 57.2211 54.4789 57.2082 54.053L57.1932 53.5573" stroke="#FFA500"/>
<path d="M43.6 59.0217L43.6195 58.434C43.6323 58.0506 43.7478 57.67 44.0287 57.4097C44.8157 56.6805 45.816 56.5361 46.5526 56.5892C46.9894 56.6207 47.3632 56.8894 47.6329 57.2333L47.9468 57.6335" stroke="#FFA500"/>
<path d="M50.0784 57.1452L50.432 55.9465C50.4941 55.7361 50.5882 55.5348 50.7357 55.3718C51.731 54.2719 53.0986 54.2917 53.8441 54.4687C53.9411 54.4917 54.0343 54.528 54.1252 54.5695L55.0056 54.9719" stroke="#FFA500"/>
<path d="M46.5141 57.3144L46.9158 57.7676C47.1779 58.0633 47.5193 58.298 47.9124 58.343C49.0134 58.4693 49.8986 58.0115 50.4457 57.5484C50.7701 57.2738 50.8889 56.8478 50.876 56.4219L50.861 55.9262" stroke="#FFA500"/>
<path d="M39.9938 59.3968L40.3955 59.85C40.6576 60.1456 40.999 60.3803 41.392 60.4254C42.4931 60.5516 43.3783 60.0939 43.9254 59.6308C44.2498 59.3561 44.3686 58.9301 44.3557 58.5043L44.3407 58.0085" stroke="#FFA500"/>
<path d="M30.7475 63.473L30.7671 62.8853C30.7798 62.5019 30.8953 62.1212 31.1763 61.8609C31.9633 61.1317 32.9635 60.9873 33.7001 61.0404C34.137 61.072 34.5108 61.3406 34.7804 61.6845L35.0944 62.0847" stroke="#FFA500"/>
<path d="M37.2259 61.5964L37.5795 60.3978C37.6416 60.1874 37.7357 59.9861 37.8832 59.8231C38.8785 58.7232 40.2462 58.743 40.9916 58.92C41.0886 58.943 41.1819 58.9793 41.2727 59.0208L42.1531 59.4232" stroke="#FFA500"/>
<path d="M33.6616 61.7657L34.0633 62.2189C34.3253 62.5145 34.6668 62.7493 35.0598 62.7943C36.1608 62.9206 37.0461 62.4628 37.5932 61.9997C37.9176 61.7251 38.0364 61.2991 38.0235 60.8732L38.0085 60.3775" stroke="#FFA500"/>
<path d="M27.1413 63.848L27.543 64.3012C27.8051 64.5968 28.1465 64.8316 28.5396 64.8766C29.6406 65.0028 30.5258 64.5451 31.0729 64.082C31.3973 63.8073 31.5161 63.3814 31.5032 62.9555L31.4882 62.4598" stroke="#FFA500"/>
<path d="M17.895 67.9243L17.9146 67.3365C17.9273 66.9532 18.0428 66.5725 18.3238 66.3122C19.1108 65.583 20.111 65.4386 20.8476 65.4917C21.2845 65.5233 21.6583 65.7919 21.928 66.1358L22.2419 66.536" stroke="#FFA500"/>
<path d="M24.3735 66.0477L24.727 64.8491C24.7891 64.6386 24.8832 64.4373 25.0307 64.2743C26.0261 63.1745 27.3937 63.1942 28.1391 63.3712C28.2361 63.3942 28.3294 63.4305 28.4203 63.472L29.3006 63.8745" stroke="#FFA500"/>
<path d="M20.8091 66.217L21.2108 66.6702C21.4729 66.9658 21.8143 67.2005 22.2073 67.2456C23.3084 67.3718 24.1936 66.9141 24.7407 66.4509C25.0651 66.1763 25.1839 65.7503 25.171 65.3244L25.156 64.8287" stroke="#FFA500"/>
<path d="M14.2889 68.2993L14.6906 68.7525C14.9526 69.0481 15.294 69.2829 15.6871 69.3279C16.7881 69.4541 17.6733 68.9964 18.2204 68.5333C18.5449 68.2586 18.6636 67.8327 18.6507 67.4068L18.6357 66.9111" stroke="#FFA500"/>
<path d="M5.04255 72.3755L5.06211 71.7878C5.07486 71.4044 5.19036 71.0237 5.4713 70.7634C6.2583 70.0342 7.25853 69.8898 7.99516 69.943C8.43199 69.9745 8.8058 70.2432 9.07548 70.587L9.38941 70.9873" stroke="#FFA500"/>
<path d="M11.521 70.4989L11.8746 69.3003C11.9366 69.0899 12.0308 68.8886 12.1783 68.7256C13.1736 67.6257 14.5412 67.6454 15.2866 67.8224C15.3836 67.8455 15.4769 67.8817 15.5678 67.9233L16.4481 68.3257" stroke="#FFA500"/>
<path d="M7.95665 70.6683L8.35835 71.1214C8.62039 71.4171 8.96182 71.6518 9.35486 71.6969C10.4559 71.8231 11.3411 71.3654 11.8882 70.9022C12.2126 70.6276 12.3314 70.2016 12.3185 69.7757L12.3035 69.28" stroke="#FFA500"/>
<path d="M1.43639 72.7505L1.83809 73.2037C2.10012 73.4993 2.44155 73.7341 2.8346 73.7791C3.93563 73.9054 4.82084 73.4476 5.36794 72.9845C5.69237 72.7099 5.81115 72.2839 5.79825 71.858L5.78324 71.3623" stroke="#FFA500"/>
<path d="M218.683 33.5147L218.674 32.9267C218.668 32.5432 218.559 32.1605 218.283 31.8954C217.509 31.1526 216.511 30.9907 215.774 31.031C215.336 31.0549 214.958 31.317 214.682 31.6561L214.361 32.0508" stroke="#FFA500"/>
<path d="M212.239 31.5253L211.906 30.3207C211.848 30.1092 211.757 29.9063 211.612 29.7408C210.636 28.6237 209.269 28.6195 208.52 28.7835C208.423 28.8049 208.329 28.8395 208.237 28.8794L207.35 29.2664" stroke="#FFA500"/>
<path d="M215.8 31.7568L215.39 32.2029C215.123 32.4939 214.777 32.7227 214.384 32.7608C213.281 32.8678 212.403 32.3947 211.864 31.9221C211.545 31.6419 211.434 31.2139 211.454 30.7883L211.478 30.2929" stroke="#FFA500"/>
<path d="M222.282 33.9526L221.873 34.3987C221.606 34.6897 221.26 34.9185 220.866 34.9566C219.763 35.0636 218.886 34.5905 218.347 34.1179C218.028 33.8377 217.916 33.4097 217.937 32.9841L217.96 32.4887" stroke="#FFA500"/>
<path d="M231.456 38.1896L231.447 37.6016C231.441 37.218 231.332 36.8354 231.056 36.5702C230.282 35.8274 229.284 35.6656 228.547 35.7059C228.109 35.7298 227.731 35.9919 227.455 36.331L227.134 36.7257" stroke="#FFA500"/>
<path d="M225.012 36.2002L224.679 34.9956C224.621 34.7841 224.53 34.5812 224.385 34.4156C223.409 33.2986 222.042 33.2944 221.293 33.4584C221.196 33.4797 221.102 33.5144 221.01 33.5543L220.123 33.9413" stroke="#FFA500"/>
<path d="M228.572 36.4317L228.163 36.8778C227.896 37.1688 227.55 37.3975 227.156 37.4357C226.053 37.5427 225.176 37.0696 224.637 36.597C224.318 36.3167 224.206 35.8887 224.227 35.4632L224.25 34.9678" stroke="#FFA500"/>
<path d="M235.055 38.6275L234.646 39.0736C234.379 39.3646 234.033 39.5933 233.639 39.6315C232.536 39.7385 231.659 39.2654 231.12 38.7928C230.801 38.5125 230.689 38.0845 230.71 37.659L230.733 37.1636" stroke="#FFA500"/>
<path d="M244.229 42.8644L244.22 42.2764C244.214 41.8929 244.105 41.5103 243.828 41.2451C243.054 40.5023 242.057 40.3404 241.319 40.3807C240.882 40.4046 240.504 40.6667 240.228 41.0058L239.907 41.4005" stroke="#FFA500"/>
<path d="M237.784 40.8751L237.452 39.6704C237.393 39.459 237.303 39.2561 237.158 39.0905C236.182 37.9734 234.814 37.9693 234.066 38.1333C233.969 38.1546 233.875 38.1892 233.783 38.2292L232.896 38.6162" stroke="#FFA500"/>
<path d="M241.345 41.1066L240.936 41.5527C240.668 41.8437 240.323 42.0724 239.929 42.1106C238.826 42.2176 237.949 41.7445 237.41 41.2719C237.091 40.9917 236.979 40.5637 237 40.1381L237.023 39.6427" stroke="#FFA500"/>
<path d="M247.828 43.3023L247.419 43.7484C247.151 44.0394 246.806 44.2682 246.412 44.3064C245.309 44.4134 244.432 43.9403 243.893 43.4677C243.574 43.1874 243.462 42.7594 243.483 42.3338L243.506 41.8384" stroke="#FFA500"/>
<path d="M257.002 47.5394L256.993 46.9514C256.987 46.5678 256.878 46.1852 256.601 45.92C255.827 45.1772 254.83 45.0154 254.092 45.0557C253.655 45.0795 253.276 45.3417 253.001 45.6808L252.68 46.0755" stroke="#FFA500"/>
<path d="M250.557 45.55L250.225 44.3454C250.166 44.1339 250.076 43.931 249.931 43.7654C248.955 42.6484 247.587 42.6442 246.839 42.8082C246.741 42.8295 246.648 42.8642 246.556 42.9041L245.669 43.2911" stroke="#FFA500"/>
<path d="M254.118 45.7814L253.708 46.2276C253.441 46.5186 253.096 46.7473 252.702 46.7855C251.599 46.8925 250.722 46.4194 250.183 45.9468C249.863 45.6665 249.752 45.2385 249.772 44.8129L249.796 44.3176" stroke="#FFA500"/>
<path d="M260.601 47.9772L260.191 48.4234C259.924 48.7144 259.579 48.9431 259.185 48.9813C258.082 49.0883 257.205 48.6152 256.666 48.1426C256.346 47.8623 256.235 47.4343 256.255 47.0087L256.279 46.5134" stroke="#FFA500"/>
<path d="M269.775 52.2142L269.765 51.6262C269.759 51.2427 269.651 50.8601 269.374 50.5949C268.6 49.8521 267.602 49.6902 266.865 49.7305C266.428 49.7544 266.049 50.0165 265.774 50.3556L265.453 50.7503" stroke="#FFA500"/>
<path d="M263.33 50.2248L262.997 49.0202C262.939 48.8088 262.848 48.6058 262.704 48.4403C261.728 47.3232 260.36 47.3191 259.612 47.4831C259.514 47.5044 259.42 47.539 259.329 47.579L258.442 47.966" stroke="#FFA500"/>
<path d="M266.891 50.4563L266.481 50.9024C266.214 51.1934 265.869 51.4222 265.475 51.4604C264.372 51.5673 263.495 51.0942 262.956 50.6216C262.636 50.3414 262.525 49.9134 262.545 49.4878L262.569 48.9924" stroke="#FFA500"/>
<path d="M273.374 52.6521L272.964 53.0982C272.697 53.3892 272.352 53.618 271.958 53.6562C270.855 53.7631 269.978 53.29 269.439 52.8174C269.119 52.5372 269.008 52.1092 269.028 51.6836L269.052 51.1882" stroke="#FFA500"/>
<path d="M282.548 56.8891L282.538 56.3011C282.532 55.9176 282.423 55.5349 282.147 55.2698C281.373 54.527 280.375 54.3651 279.638 54.4054C279.201 54.4293 278.822 54.6914 278.546 55.0305L278.226 55.4252" stroke="#FFA500"/>
<path d="M276.103 54.8997L275.77 53.6951C275.712 53.4836 275.621 53.2807 275.477 53.1152C274.501 51.9981 273.133 51.9939 272.385 52.1579C272.287 52.1793 272.193 52.2139 272.102 52.2538L271.214 52.6408" stroke="#FFA500"/>
<path d="M279.664 55.1312L279.254 55.5774C278.987 55.8684 278.641 56.0971 278.248 56.1353C277.145 56.2423 276.268 55.7692 275.729 55.2966C275.409 55.0163 275.298 54.5883 275.318 54.1627L275.342 53.6674" stroke="#FFA500"/>
<path d="M286.147 57.327L285.737 57.7731C285.47 58.0641 285.124 58.2928 284.731 58.331C283.628 58.438 282.751 57.9649 282.212 57.4923C281.892 57.212 281.781 56.7841 281.801 56.3585L281.825 55.8631" stroke="#FFA500"/>
<path d="M295.32 61.564L295.311 60.976C295.305 60.5925 295.196 60.2099 294.92 59.9447C294.146 59.2019 293.148 59.04 292.411 59.0803C291.973 59.1042 291.595 59.3663 291.319 59.7054L290.998 60.1001" stroke="#FFA500"/>
<path d="M288.876 59.5746L288.543 58.37C288.485 58.1585 288.394 57.9556 288.249 57.7901C287.274 56.673 285.906 56.6689 285.157 56.8329C285.06 56.8542 284.966 56.8888 284.874 56.9288L283.987 57.3157" stroke="#FFA500"/>
<path d="M292.436 59.8061L292.027 60.2522C291.76 60.5432 291.414 60.772 291.021 60.8102C289.917 60.9171 289.04 60.444 288.501 59.9714C288.182 59.6912 288.071 59.2632 288.091 58.8376L288.115 58.3422" stroke="#FFA500"/>
<path d="M298.919 62.0019L298.51 62.448C298.243 62.739 297.897 62.9678 297.504 63.006C296.4 63.1129 295.523 62.6398 294.984 62.1672C294.665 61.887 294.554 61.459 294.574 61.0334L294.597 60.538" stroke="#FFA500"/>
<path d="M308.093 66.2389L308.084 65.6509C308.078 65.2674 307.969 64.8847 307.693 64.6196C306.919 63.8768 305.921 63.7149 305.184 63.7552C304.746 63.7791 304.368 64.0412 304.092 64.3803L303.771 64.775" stroke="#FFA500"/>
<path d="M301.649 64.2495L301.316 63.0449C301.258 62.8334 301.167 62.6305 301.022 62.465C300.046 61.3479 298.679 61.3437 297.93 61.5077C297.833 61.5291 297.739 61.5637 297.647 61.6036L296.76 61.9906" stroke="#FFA500"/>
<path d="M305.209 64.481L304.8 64.9271C304.533 65.2181 304.187 65.4468 303.793 65.485C302.69 65.592 301.813 65.1189 301.274 64.6463C300.955 64.366 300.843 63.938 300.864 63.5125L300.887 63.0171" stroke="#FFA500"/>
<path d="M311.692 66.6768L311.283 67.1229C311.016 67.4139 310.67 67.6426 310.276 67.6808C309.173 67.7878 308.296 67.3147 307.757 66.8421C307.438 66.5618 307.326 66.1338 307.347 65.7083L307.37 65.2129" stroke="#FFA500"/>
<path d="M320.866 70.9137L320.857 70.3258C320.851 69.9422 320.742 69.5596 320.466 69.2944C319.691 68.5516 318.694 68.3898 317.956 68.43C317.519 68.4539 317.141 68.716 316.865 69.0551L316.544 69.4499" stroke="#FFA500"/>
<path d="M314.421 68.9244L314.089 67.7198C314.03 67.5083 313.94 67.3054 313.795 67.1398C312.819 66.0227 311.451 66.0186 310.703 66.1826C310.606 66.2039 310.512 66.2385 310.42 66.2785L309.533 66.6655" stroke="#FFA500"/>
<path d="M317.982 69.1558L317.573 69.6019C317.306 69.893 316.96 70.1217 316.566 70.1599C315.463 70.2669 314.586 69.7938 314.047 69.3212C313.728 69.0409 313.616 68.6129 313.637 68.1873L313.66 67.6919" stroke="#FFA500"/>
<path d="M324.465 71.3516L324.056 71.7978C323.788 72.0888 323.443 72.3175 323.049 72.3557C321.946 72.4627 321.069 71.9896 320.53 71.517C320.211 71.2367 320.099 70.8087 320.12 70.3831L320.143 69.8878" stroke="#FFA500"/>
<path d="M333.639 75.5887L333.63 75.0007C333.624 74.6171 333.515 74.2345 333.238 73.9694C332.464 73.2265 331.467 73.0647 330.729 73.105C330.292 73.1289 329.913 73.391 329.638 73.7301L329.317 74.1248" stroke="#FFA500"/>
<path d="M340.639 77.5887L340.63 77.0008C340.624 76.6172 340.515 76.2346 340.238 75.9694C339.464 75.2266 338.467 75.0647 337.729 75.105C337.292 75.1289 336.914 75.391 336.638 75.7301L336.317 76.1248" stroke="#FFA500"/>
<path d="M347.322 80.0402L347.313 79.4522C347.307 79.0687 347.198 78.6861 346.921 78.4209C346.147 77.6781 345.15 77.5162 344.412 77.5565C343.975 77.5804 343.597 77.8425 343.321 78.1816L343 78.5763" stroke="#FFA500"/>
<path d="M327.194 73.5993L326.862 72.3947C326.803 72.1832 326.713 71.9803 326.568 71.8147C325.592 70.6977 324.224 70.6935 323.476 70.8575C323.378 70.8789 323.285 70.9135 323.193 70.9534L322.306 71.3404" stroke="#FFA500"/>
<path d="M330.755 73.8308L330.345 74.2769C330.078 74.5679 329.733 74.7966 329.339 74.8348C328.236 74.9418 327.359 74.4687 326.82 73.9961C326.5 73.7158 326.389 73.2878 326.409 72.8623L326.433 72.3669" stroke="#FFA500"/>
<path d="M337.238 76.0265L336.828 76.4726C336.561 76.7636 336.216 76.9924 335.822 77.0306C334.719 77.1375 333.842 76.6644 333.303 76.1918C332.983 75.9116 332.872 75.4836 332.892 75.058L332.916 74.5626" stroke="#FFA500"/>
<path d="M344.238 78.0266L343.829 78.4727C343.561 78.7637 343.216 78.9925 342.822 79.0307C341.719 79.1377 340.842 78.6646 340.303 78.192C339.983 77.9117 339.872 77.4837 339.892 77.0581L339.916 76.5627" stroke="#FFA500"/>
<path d="M23.9408 129.496L132.5 142.444V145.444L20 133.55V77.3538L139.5 35.2065V38.6472L21.8323 80.5289L21.5 80.6472V81V85V85.7086L22.1676 85.4711L132.5 46.2086V51V55V55.5H133H139.5V137.5H136.5H133.03L24.0592 124.504L23.5 124.437V125V129V129.444L23.9408 129.496ZM206 46.0426L329.831 90.4706L330.5 90.7106V90V86V85.6482L330.169 85.5294L199.5 38.6482V35.2086L332 82.3528V147H199.5V143.5H328H328.5V143V139V138.5H328H199.5V83.5112L221.288 83.9954L222.5 85.2071V85.882L222.089 86.7038L220.646 88.1464L220.563 88.2299L220.526 88.3419L220.026 89.8419L219.973 90L220.026 90.1581L220.526 91.6581L220.551 91.7351L220.6 91.8L221.84 93.4531L220.646 94.6464L220.5 94.7929V95V96.5V96.5811L220.526 96.6581L221.026 98.1581L221.075 98.3063L221.2 98.4L223.2 99.9L223.379 100.034L223.598 99.9903L226.098 99.4903L226.143 99.4813L226.186 99.4642L228.596 98.5H230.904L233.314 99.4642L233.473 99.5277L233.637 99.4808L237.07 98.5H240.919L243.79 99.457L246.243 100.929L246.362 101H246.5H249.5H249.667L249.8 100.9L251.8 99.4L252.075 99.1935L251.981 98.8626L251.023 95.5114L251.437 94.2701L252.854 92.8536L253 92.7071V92.5V90V89.9384L252.985 89.8787L252.485 87.8787L252.48 87.8601L252.474 87.8419L251.572 85.135L253.354 83.3536L253.451 83.2556L253.485 83.1213L253.985 81.1213L254.091 80.6979L253.686 80.5358L251.186 79.5358L251.016 79.4677L250.842 79.5257L246.419 81H242.707L241.354 79.6464L241.296 79.5891L241.224 79.5528L239.224 78.5528L239.084 78.4829L238.929 78.505L235.429 79.005L235.416 79.007L235.402 79.0097L230.521 79.9859L227.226 79.0446L225.3 77.6L225.167 77.5H225H223H222.793L222.646 77.6464L221.146 79.1464L221.039 79.2535L221.01 79.4019L220.51 81.9019L220.484 82.0321L220.526 82.1581L220.801 82.9843L199.5 82.511V55.5H205.5H206V55V46.0426Z" fill="#FFA500" stroke="#FFA500"/>
<path d="M192 143.5H198.5V157.5H166.5V139.5H191.5V143V143.5H192Z" fill="#FFA500" stroke="#FFA500"/>
<path d="M134.5 144.5H165.5V147.5H134.5V144.5Z" fill="#FFA500" stroke="#FFA500"/>
<path d="M134.5 139.5H165.5V142.5H134.5V139.5Z" fill="#FFA500" stroke="#FFA500"/>
<path d="M137.5 19H137.707L137.853 18.8537C150.942 5.77523 161.754 0.372889 172.851 1.36733C183.95 2.36188 195.483 9.75981 210 22.7237V37.8252L199.5 34.6295V31.5V31.0037L199.004 31L133 30.5037V19L137.5 19Z" fill="#FFA500" stroke="#FFA500"/>
<path d="M147.5 131.5V57.2478C156.068 50.7417 162.714 47.5852 169.351 47.5961C175.991 47.607 182.735 50.7877 191.5 57.2521V131.5H147.5Z" fill="#FFA500" stroke="#FFA500"/>
<path d="M137.7 47.1075L140.895 44.7002L146.311 51.888L143.117 54.2952L137.7 47.1075Z" fill="#FFA500" stroke="#FFA500"/>
<path d="M200.57 46.1075L197.376 43.7002L191.96 50.888L195.154 53.2952L200.57 46.1075Z" fill="#FFA500" stroke="#FFA500"/>
<path d="M143.68 42.619L147.178 40.6797L151.542 48.5513L148.043 50.4906L143.68 42.619Z" fill="#FFA500" stroke="#FFA500"/>
<path d="M194.591 41.619L191.092 39.6797L186.729 47.5513L190.228 49.4906L194.591 41.619Z" fill="#FFA500" stroke="#FFA500"/>
<path d="M150.646 39.0795L154.38 37.646L157.606 46.0482L153.871 47.4817L150.646 39.0795Z" fill="#FFA500" stroke="#FFA500"/>
<path d="M187.625 38.0795L183.89 36.646L180.665 45.0482L184.399 46.4817L187.625 38.0795Z" fill="#FFA500" stroke="#FFA500"/>
<path d="M157.606 36.5738L161.487 35.6061L163.665 44.3388L159.783 45.3064L157.606 36.5738Z" fill="#FFA500" stroke="#FFA500"/>
<path d="M180.665 35.5738L176.783 34.6061L174.606 43.3388L178.487 44.3064L180.665 35.5738Z" fill="#FFA500" stroke="#FFA500"/>
<path d="M166.5 34.5H171.5V43.5H166.5V34.5Z" fill="#FFA500" stroke="#FFA500"/>
</svg>
