<svg width="351" height="158" viewBox="0 0 351 158" fill="none" xmlns="http://www.w3.org/2000/svg">
<path d="M2 72.7481L20 79.7481" stroke="white"/>
<path d="M347.5 78.2481L332 86.2481" stroke="white"/>
<path d="M120.715 31.5623L120.734 30.9746C120.747 30.5912 120.863 30.2106 121.144 29.9503C121.931 29.2211 122.931 29.0766 123.667 29.1298C124.104 29.1613 124.478 29.43 124.748 29.7738L125.062 30.1741" stroke="white"/>
<path d="M127.193 29.6857L127.547 28.4871C127.609 28.2767 127.703 28.0754 127.851 27.9124C128.846 26.8125 130.214 26.8322 130.959 27.0093C131.056 27.0323 131.149 27.0686 131.24 27.1101L132.12 27.5125" stroke="white"/>
<path d="M123.629 29.855L124.031 30.3082C124.293 30.6038 124.634 30.8386 125.027 30.8836C126.128 31.0098 127.013 30.5521 127.561 30.089C127.885 29.8144 128.004 29.3884 127.991 28.9625L127.976 28.4668" stroke="white"/>
<path d="M117.109 31.9374L117.51 32.3906C117.772 32.6862 118.114 32.9209 118.507 32.966C119.608 33.0922 120.493 32.6345 121.04 32.1713C121.365 31.8967 121.483 31.4707 121.471 31.0448L121.456 30.5491" stroke="white"/>
<path d="M107.862 36.0136L107.882 35.4258C107.895 35.0425 108.01 34.6618 108.291 34.4015C109.078 33.6723 110.078 33.5279 110.815 33.581C111.252 33.6125 111.626 33.8812 111.895 34.2251L112.209 34.6253" stroke="white"/>
<path d="M114.341 34.137L114.694 32.9384C114.756 32.7279 114.851 32.5266 114.998 32.3636C115.993 31.2638 117.361 31.2835 118.107 31.4605C118.204 31.4835 118.297 31.5198 118.388 31.5613L119.268 31.9637" stroke="white"/>
<path d="M110.777 34.3063L111.178 34.7595C111.44 35.0551 111.782 35.2899 112.175 35.3349C113.276 35.4611 114.161 35.0034 114.708 34.5403C115.033 34.2657 115.151 33.8397 115.138 33.4138L115.123 32.9181" stroke="white"/>
<path d="M104.256 36.3886L104.658 36.8418C104.92 37.1374 105.261 37.3721 105.654 37.4172C106.755 37.5434 107.641 37.0857 108.188 36.6226C108.512 36.3479 108.631 35.9219 108.618 35.4961L108.603 35.0004" stroke="white"/>
<path d="M95.0099 40.4649L95.0295 39.8771C95.0422 39.4938 95.1577 39.1131 95.4387 38.8528C96.2257 38.1236 97.2259 37.9792 97.9625 38.0323C98.3994 38.0638 98.7732 38.3325 99.0429 38.6764L99.3568 39.0766" stroke="white"/>
<path d="M101.488 38.5883L101.842 37.3896C101.904 37.1792 101.998 36.9779 102.146 36.8149C103.141 35.715 104.509 35.7348 105.254 35.9118C105.351 35.9348 105.444 35.9711 105.535 36.0126L106.416 36.415" stroke="white"/>
<path d="M97.924 38.7575L98.3257 39.2107C98.5878 39.5064 98.9292 39.7411 99.3223 39.7862C100.423 39.9124 101.308 39.4547 101.856 38.9915C102.18 38.7169 102.299 38.2909 102.286 37.865L102.271 37.3693" stroke="white"/>
<path d="M91.4037 40.8398L91.8054 41.293C92.0675 41.5886 92.4089 41.8234 92.8019 41.8684C93.903 41.9946 94.7882 41.5369 95.3353 41.0738C95.6597 40.7992 95.7785 40.3732 95.7656 39.9473L95.7506 39.4516" stroke="white"/>
<path d="M82.1574 44.9161L82.177 44.3284C82.1897 43.945 82.3052 43.5643 82.5862 43.304C83.3732 42.5748 84.3734 42.4304 85.11 42.4836C85.5469 42.5151 85.9207 42.7837 86.1904 43.1276L86.5043 43.5279" stroke="white"/>
<path d="M88.6359 43.0395L88.9895 41.8409C89.0515 41.6305 89.1457 41.4292 89.2932 41.2662C90.2885 40.1663 91.6561 40.186 92.4015 40.363C92.4985 40.3861 92.5918 40.4223 92.6827 40.4639L93.563 40.8663" stroke="white"/>
<path d="M85.0716 43.2088L85.4733 43.662C85.7353 43.9576 86.0767 44.1923 86.4698 44.2374C87.5708 44.3636 88.456 43.9059 89.0031 43.4428C89.3276 43.1681 89.4463 42.7421 89.4334 42.3163L89.4184 41.8205" stroke="white"/>
<path d="M78.5513 45.2911L78.953 45.7443C79.215 46.0399 79.5564 46.2747 79.9495 46.3197C81.0505 46.4459 81.9357 45.9882 82.4828 45.5251C82.8072 45.2505 82.926 44.8245 82.9131 44.3986L82.8981 43.9029" stroke="white"/>
<path d="M69.305 49.3673L69.3245 48.7796C69.3373 48.3962 69.4528 48.0156 69.7337 47.7553C70.5207 47.0261 71.5209 46.8816 72.2576 46.9348C72.6944 46.9663 73.0682 47.235 73.3379 47.5788L73.6518 47.9791" stroke="white"/>
<path d="M75.7834 47.4907L76.137 46.2921C76.199 46.0817 76.2932 45.8804 76.4407 45.7174C77.436 44.6175 78.8036 44.6372 79.5491 44.8143C79.6461 44.8373 79.7393 44.8736 79.8302 44.9151L80.7106 45.3175" stroke="white"/>
<path d="M72.2191 47.6601L72.6208 48.1133C72.8828 48.4089 73.2242 48.6436 73.6173 48.6887C74.7183 48.8149 75.6035 48.3572 76.1506 47.8941C76.4751 47.6194 76.5938 47.1934 76.5809 46.7676L76.5659 46.2718" stroke="white"/>
<path d="M65.6988 49.7424L66.1005 50.1955C66.3625 50.4912 66.7039 50.7259 67.097 50.771C68.198 50.8972 69.0832 50.4395 69.6303 49.9763C69.9548 49.7017 70.0735 49.2757 70.0606 48.8498L70.0456 48.3541" stroke="white"/>
<path d="M56.4525 53.8186L56.472 53.2309C56.4848 52.8475 56.6003 52.4668 56.8812 52.2065C57.6682 51.4774 58.6685 51.3329 59.4051 51.3861C59.8419 51.4176 60.2157 51.6863 60.4854 52.0301L60.7993 52.4304" stroke="white"/>
<path d="M62.9309 51.942L63.2845 50.7434C63.3466 50.533 63.4407 50.3317 63.5882 50.1687C64.5835 49.0688 65.9511 49.0885 66.6966 49.2656C66.7936 49.2886 66.8868 49.3249 66.9777 49.3664L67.8581 49.7688" stroke="white"/>
<path d="M59.3666 52.1113L59.7683 52.5645C60.0303 52.8601 60.3718 53.0949 60.7648 53.1399C61.8658 53.2661 62.7511 52.8084 63.2981 52.3453C63.6226 52.0707 63.7414 51.6447 63.7285 51.2188L63.7135 50.7231" stroke="white"/>
<path d="M52.8463 54.1936L53.248 54.6468C53.51 54.9425 53.8515 55.1772 54.2445 55.2223C55.3455 55.3485 56.2308 54.8908 56.7779 54.4276C57.1023 54.153 57.2211 53.727 57.2082 53.3011L57.1932 52.8054" stroke="white"/>
<path d="M43.6 58.2699L43.6195 57.6821C43.6323 57.2987 43.7478 56.9181 44.0287 56.6578C44.8157 55.9286 45.816 55.7842 46.5526 55.8373C46.9894 55.8688 47.3632 56.1375 47.6329 56.4814L47.9468 56.8816" stroke="white"/>
<path d="M50.0784 56.3933L50.432 55.1946C50.4941 54.9842 50.5882 54.7829 50.7357 54.6199C51.731 53.52 53.0987 53.5398 53.8441 53.7168C53.9411 53.7398 54.0344 53.7761 54.1252 53.8176L55.0056 54.22" stroke="white"/>
<path d="M46.5141 56.5625L46.9158 57.0157C47.1779 57.3114 47.5193 57.5461 47.9123 57.5912C49.0134 57.7174 49.8986 57.2597 50.4457 56.7965C50.7701 56.5219 50.8889 56.0959 50.876 55.67L50.861 55.1743" stroke="white"/>
<path d="M39.9938 58.6449L40.3955 59.0981C40.6576 59.3937 40.999 59.6284 41.392 59.6735C42.4931 59.7997 43.3783 59.342 43.9254 58.8789C44.2498 58.6042 44.3686 58.1782 44.3557 57.7524L44.3407 57.2566" stroke="white"/>
<path d="M30.7475 62.7211L30.7671 62.1334C30.7798 61.75 30.8953 61.3693 31.1763 61.109C31.9633 60.3798 32.9635 60.2354 33.7001 60.2885C34.137 60.3201 34.5108 60.5887 34.7804 60.9326L35.0944 61.3329" stroke="white"/>
<path d="M37.226 60.8446L37.5795 59.6459C37.6416 59.4355 37.7357 59.2342 37.8832 59.0712C38.8786 57.9713 40.2462 57.9911 40.9916 58.1681C41.0886 58.1911 41.1819 58.2274 41.2727 58.2689L42.1531 58.6713" stroke="white"/>
<path d="M33.6616 61.0138L34.0633 61.467C34.3254 61.7627 34.6668 61.9974 35.0598 62.0424C36.1609 62.1687 37.0461 61.7109 37.5932 61.2478C37.9176 60.9732 38.0364 60.5472 38.0235 60.1213L38.0085 59.6256" stroke="white"/>
<path d="M27.1413 63.0961L27.543 63.5493C27.8051 63.8449 28.1465 64.0797 28.5395 64.1247C29.6406 64.2509 30.5258 63.7932 31.0729 63.3301C31.3973 63.0555 31.5161 62.6295 31.5032 62.2036L31.4882 61.7079" stroke="white"/>
<path d="M17.895 67.1724L17.9146 66.5847C17.9273 66.2013 18.0428 65.8206 18.3238 65.5603C19.1108 64.8311 20.111 64.6867 20.8476 64.7398C21.2845 64.7714 21.6583 65.04 21.928 65.3839L22.2419 65.7841" stroke="white"/>
<path d="M24.3735 65.2958L24.727 64.0972C24.7891 63.8867 24.8832 63.6854 25.0307 63.5224C26.0261 62.4226 27.3937 62.4423 28.1391 62.6193C28.2361 62.6424 28.3294 62.6786 28.4203 62.7201L29.3006 63.1226" stroke="white"/>
<path d="M20.8092 65.4651L21.2109 65.9183C21.4729 66.2139 21.8143 66.4486 22.2074 66.4937C23.3084 66.6199 24.1936 66.1622 24.7407 65.699C25.0651 65.4244 25.1839 64.9984 25.171 64.5726L25.156 64.0768" stroke="white"/>
<path d="M14.2888 67.5474L14.6905 68.0006C14.9526 68.2962 15.294 68.531 15.687 68.576C16.7881 68.7022 17.6733 68.2445 18.2204 67.7814C18.5448 67.5067 18.6636 67.0808 18.6507 66.6549L18.6357 66.1592" stroke="white"/>
<path d="M5.04255 71.6236L5.06211 71.0359C5.07486 70.6525 5.19036 70.2718 5.4713 70.0115C6.2583 69.2824 7.25853 69.1379 7.99516 69.1911C8.43199 69.2226 8.8058 69.4913 9.07548 69.8351L9.38941 70.2354" stroke="white"/>
<path d="M11.521 69.747L11.8746 68.5484C11.9366 68.338 12.0308 68.1367 12.1783 67.9737C13.1736 66.8738 14.5412 66.8935 15.2866 67.0705C15.3836 67.0936 15.4769 67.1298 15.5678 67.1714L16.4481 67.5738" stroke="white"/>
<path d="M7.95665 69.9164L8.35835 70.3696C8.62039 70.6652 8.96182 70.8999 9.35486 70.945C10.4559 71.0712 11.3411 70.6135 11.8882 70.1503C12.2126 69.8757 12.3314 69.4497 12.3185 69.0238L12.3035 68.5281" stroke="white"/>
<path d="M1.43636 71.9986L1.83806 72.4518C2.10009 72.7475 2.44152 72.9822 2.83457 73.0272C3.9356 73.1535 4.82081 72.6957 5.36791 72.2326C5.69234 71.958 5.81112 71.532 5.79822 71.1061L5.78321 70.6104" stroke="white"/>
<path d="M218.683 32.7628L218.674 32.1748C218.668 31.7913 218.559 31.4087 218.283 31.1435C217.509 30.4007 216.511 30.2388 215.774 30.2791C215.336 30.303 214.958 30.5651 214.682 30.9042L214.361 31.2989" stroke="white"/>
<path d="M212.239 30.7734L211.906 29.5688C211.848 29.3573 211.757 29.1544 211.612 28.9889C210.636 27.8718 209.269 27.8677 208.52 28.0316C208.423 28.053 208.329 28.0876 208.237 28.1276L207.35 28.5145" stroke="white"/>
<path d="M215.8 31.0049L215.39 31.451C215.123 31.742 214.777 31.9708 214.384 32.0089C213.28 32.1159 212.403 31.6428 211.864 31.1702C211.545 30.89 211.434 30.462 211.454 30.0364L211.478 29.541" stroke="white"/>
<path d="M222.282 33.2007L221.873 33.6468C221.606 33.9378 221.26 34.1666 220.867 34.2047C219.763 34.3117 218.886 33.8386 218.347 33.366C218.028 33.0858 217.917 32.6578 217.937 32.2322L217.96 31.7368" stroke="white"/>
<path d="M231.456 37.4377L231.447 36.8497C231.441 36.4661 231.332 36.0835 231.056 35.8184C230.282 35.0755 229.284 34.9137 228.547 34.954C228.109 34.9779 227.731 35.24 227.455 35.5791L227.134 35.9738" stroke="white"/>
<path d="M225.012 35.4483L224.679 34.2437C224.621 34.0322 224.53 33.8293 224.385 33.6637C223.409 32.5467 222.042 32.5425 221.293 32.7065C221.196 32.7278 221.102 32.7625 221.01 32.8024L220.123 33.1894" stroke="white"/>
<path d="M228.572 35.6798L228.163 36.1259C227.896 36.4169 227.55 36.6456 227.156 36.6838C226.053 36.7908 225.176 36.3177 224.637 35.8451C224.318 35.5648 224.206 35.1368 224.227 34.7113L224.25 34.2159" stroke="white"/>
<path d="M235.055 37.8756L234.646 38.3217C234.379 38.6127 234.033 38.8414 233.639 38.8796C232.536 38.9866 231.659 38.5135 231.12 38.0409C230.801 37.7606 230.689 37.3326 230.71 36.9071L230.733 36.4117" stroke="white"/>
<path d="M244.229 42.1125L244.22 41.5246C244.214 41.141 244.105 40.7584 243.829 40.4932C243.054 39.7504 242.057 39.5885 241.319 39.6288C240.882 39.6527 240.504 39.9148 240.228 40.2539L239.907 40.6487" stroke="white"/>
<path d="M237.784 40.1232L237.452 38.9186C237.393 38.7071 237.303 38.5042 237.158 38.3386C236.182 37.2215 234.814 37.2174 234.066 37.3814C233.969 37.4027 233.875 37.4373 233.783 37.4773L232.896 37.8643" stroke="white"/>
<path d="M241.345 40.3547L240.936 40.8008C240.668 41.0918 240.323 41.3206 239.929 41.3587C238.826 41.4657 237.949 40.9926 237.41 40.52C237.091 40.2398 236.979 39.8118 237 39.3862L237.023 38.8908" stroke="white"/>
<path d="M247.828 42.5504L247.419 42.9965C247.151 43.2875 246.806 43.5163 246.412 43.5545C245.309 43.6615 244.432 43.1884 243.893 42.7158C243.574 42.4355 243.462 42.0075 243.483 41.5819L243.506 41.0865" stroke="white"/>
<path d="M257.002 46.7875L256.993 46.1995C256.987 45.8159 256.878 45.4333 256.601 45.1681C255.827 44.4253 254.83 44.2635 254.092 44.3038C253.655 44.3277 253.276 44.5898 253.001 44.9289L252.68 45.3236" stroke="white"/>
<path d="M250.557 44.7981L250.225 43.5935C250.166 43.382 250.076 43.1791 249.931 43.0135C248.955 41.8965 247.587 41.8923 246.839 42.0563C246.741 42.0776 246.648 42.1123 246.556 42.1522L245.669 42.5392" stroke="white"/>
<path d="M254.118 45.0296L253.708 45.4757C253.441 45.7667 253.096 45.9954 252.702 46.0336C251.599 46.1406 250.722 45.6675 250.183 45.1949C249.863 44.9146 249.752 44.4866 249.772 44.0611L249.796 43.5657" stroke="white"/>
<path d="M260.601 47.2254L260.191 47.6715C259.924 47.9625 259.579 48.1912 259.185 48.2294C258.082 48.3364 257.205 47.8633 256.666 47.3907C256.346 47.1104 256.235 46.6824 256.255 46.2569L256.279 45.7615" stroke="white"/>
<path d="M269.775 51.4623L269.765 50.8743C269.759 50.4908 269.651 50.1082 269.374 49.843C268.6 49.1002 267.602 48.9383 266.865 48.9786C266.428 49.0025 266.049 49.2646 265.774 49.6037L265.453 49.9984" stroke="white"/>
<path d="M263.33 49.473L262.997 48.2683C262.939 48.0569 262.848 47.854 262.704 47.6884C261.728 46.5713 260.36 46.5672 259.612 46.7312C259.514 46.7525 259.42 46.7871 259.329 46.8271L258.442 47.2141" stroke="white"/>
<path d="M266.891 49.7044L266.481 50.1505C266.214 50.4415 265.869 50.6703 265.475 50.7085C264.372 50.8155 263.495 50.3424 262.956 49.8697C262.636 49.5895 262.525 49.1615 262.545 48.7359L262.569 48.2405" stroke="white"/>
<path d="M273.374 51.9002L272.964 52.3463C272.697 52.6373 272.352 52.8661 271.958 52.9043C270.855 53.0113 269.978 52.5382 269.439 52.0656C269.119 51.7853 269.008 51.3573 269.028 50.9317L269.052 50.4363" stroke="white"/>
<path d="M282.548 56.1372L282.538 55.5492C282.532 55.1657 282.423 54.783 282.147 54.5179C281.373 53.7751 280.375 53.6132 279.638 53.6535C279.201 53.6774 278.822 53.9395 278.546 54.2786L278.226 54.6733" stroke="white"/>
<path d="M276.103 54.1478L275.77 52.9432C275.712 52.7317 275.621 52.5288 275.477 52.3633C274.501 51.2462 273.133 51.242 272.384 51.406C272.287 51.4274 272.193 51.462 272.102 51.5019L271.214 51.8889" stroke="white"/>
<path d="M279.664 54.3793L279.254 54.8255C278.987 55.1165 278.642 55.3452 278.248 55.3834C277.145 55.4904 276.268 55.0173 275.729 54.5447C275.409 54.2644 275.298 53.8364 275.318 53.4108L275.342 52.9155" stroke="white"/>
<path d="M286.147 56.5751L285.737 57.0212C285.47 57.3122 285.124 57.541 284.731 57.5791C283.628 57.6861 282.751 57.213 282.212 56.7404C281.892 56.4602 281.781 56.0322 281.801 55.6066L281.825 55.1112" stroke="white"/>
<path d="M295.32 60.8121L295.311 60.2241C295.305 59.8406 295.196 59.458 294.92 59.1928C294.146 58.45 293.148 58.2881 292.411 58.3284C291.973 58.3523 291.595 58.6144 291.319 58.9535L290.998 59.3482" stroke="white"/>
<path d="M288.876 58.8227L288.543 57.6181C288.485 57.4067 288.394 57.2037 288.249 57.0382C287.273 55.9211 285.906 55.917 285.157 56.081C285.06 56.1023 284.966 56.1369 284.874 56.1769L283.987 56.5639" stroke="white"/>
<path d="M292.437 59.0542L292.027 59.5003C291.76 59.7913 291.414 60.0201 291.021 60.0583C289.918 60.1652 289.04 59.6921 288.501 59.2195C288.182 58.9393 288.071 58.5113 288.091 58.0857L288.115 57.5903" stroke="white"/>
<path d="M298.919 61.25L298.51 61.6961C298.243 61.9871 297.897 62.2159 297.504 62.2541C296.4 62.361 295.523 61.8879 294.984 61.4153C294.665 61.1351 294.554 60.7071 294.574 60.2815L294.598 59.7861" stroke="white"/>
<path d="M308.093 65.487L308.084 64.899C308.078 64.5155 307.969 64.1328 307.693 63.8677C306.919 63.1249 305.921 62.963 305.184 63.0033C304.746 63.0272 304.368 63.2893 304.092 63.6284L303.771 64.0231" stroke="white"/>
<path d="M301.649 63.4976L301.316 62.293C301.258 62.0815 301.167 61.8786 301.022 61.7131C300.046 60.596 298.679 60.5918 297.93 60.7558C297.833 60.7772 297.739 60.8118 297.647 60.8517L296.76 61.2387" stroke="white"/>
<path d="M305.209 63.7291L304.8 64.1752C304.533 64.4662 304.187 64.6949 303.793 64.7331C302.69 64.8401 301.813 64.367 301.274 63.8944C300.955 63.6141 300.843 63.1862 300.864 62.7606L300.887 62.2652" stroke="white"/>
<path d="M311.692 65.9249L311.283 66.371C311.016 66.662 310.67 66.8907 310.276 66.9289C309.173 67.0359 308.296 66.5628 307.757 66.0902C307.438 65.8099 307.326 65.382 307.347 64.9564L307.37 64.461" stroke="white"/>
<path d="M320.866 70.1619L320.857 69.5739C320.851 69.1903 320.742 68.8077 320.466 68.5425C319.691 67.7997 318.694 67.6379 317.956 67.6782C317.519 67.702 317.141 67.9642 316.865 68.3032L316.544 68.698" stroke="white"/>
<path d="M314.421 68.1725L314.089 66.9679C314.03 66.7564 313.94 66.5535 313.795 66.3879C312.819 65.2709 311.451 65.2667 310.703 65.4307C310.606 65.452 310.512 65.4867 310.42 65.5266L309.533 65.9136" stroke="white"/>
<path d="M317.982 68.4039L317.573 68.8501C317.305 69.1411 316.96 69.3698 316.566 69.408C315.463 69.515 314.586 69.0419 314.047 68.5693C313.728 68.289 313.616 67.861 313.637 67.4354L313.66 66.9401" stroke="white"/>
<path d="M324.465 70.5997L324.056 71.0459C323.788 71.3369 323.443 71.5656 323.049 71.6038C321.946 71.7108 321.069 71.2377 320.53 70.7651C320.211 70.4848 320.099 70.0568 320.12 69.6312L320.143 69.1359" stroke="white"/>
<path d="M333.639 74.8368L333.63 74.2488C333.624 73.8653 333.515 73.4826 333.238 73.2175C332.464 72.4747 331.467 72.3128 330.729 72.3531C330.292 72.377 329.913 72.6391 329.638 72.9782L329.317 73.3729" stroke="white"/>
<path d="M340.639 76.8368L340.63 76.2489C340.624 75.8653 340.515 75.4827 340.238 75.2175C339.464 74.4747 338.467 74.3129 337.729 74.3531C337.292 74.377 336.914 74.6391 336.638 74.9782L336.317 75.373" stroke="white"/>
<path d="M347.322 79.2883L347.313 78.7003C347.307 78.3168 347.198 77.9342 346.921 77.669C346.147 76.9262 345.15 76.7643 344.412 76.8046C343.975 76.8285 343.597 77.0906 343.321 77.4297L343 77.8244" stroke="white"/>
<path d="M327.194 72.8474L326.862 71.6428C326.803 71.4313 326.713 71.2284 326.568 71.0629C325.592 69.9458 324.224 69.9416 323.476 70.1056C323.378 70.127 323.285 70.1616 323.193 70.2015L322.306 70.5885" stroke="white"/>
<path d="M330.755 73.0789L330.345 73.525C330.078 73.816 329.733 74.0447 329.339 74.0829C328.236 74.1899 327.359 73.7168 326.82 73.2442C326.5 72.9639 326.389 72.5359 326.409 72.1104L326.433 71.615" stroke="white"/>
<path d="M337.238 75.2746L336.828 75.7207C336.561 76.0117 336.216 76.2405 335.822 76.2787C334.719 76.3856 333.842 75.9125 333.303 75.4399C332.983 75.1597 332.872 74.7317 332.892 74.3061L332.916 73.8107" stroke="white"/>
<path d="M344.238 77.2747L343.828 77.7208C343.561 78.0119 343.216 78.2406 342.822 78.2788C341.719 78.3858 340.842 77.9127 340.303 77.4401C339.983 77.1598 339.872 76.7318 339.892 76.3062L339.916 75.8108" stroke="white"/>
<path d="M220.526 81.4062L220.801 82.2325L199.5 81.7591V54.7481H205.5H206V54.2481V45.2907L329.831 89.7187L330.5 89.9587V89.2481V85.2481V84.8963L330.169 84.7775L199.5 37.8963V34.4567L332 81.6009V146.248H199.5V142.748H328H328.5V142.248V138.248V137.748H328H199.5V82.7593L221.288 83.2435L222.5 84.4552V85.1301L222.089 85.952L220.646 87.3946L220.563 87.478L220.526 87.59L220.026 89.09L219.973 89.2481L220.026 89.4062L220.526 90.9062L220.551 90.9832L220.6 91.0481L221.84 92.7012L220.646 93.8946L220.5 94.041V94.2481V95.7481V95.8292L220.526 95.9062L221.026 97.4062L221.075 97.5544L221.2 97.6481L223.2 99.1481L223.379 99.2822L223.598 99.2384L226.098 98.7384L226.143 98.7294L226.186 98.7123L228.596 97.7481H230.904L233.314 98.7123L233.473 98.7758L233.637 98.7289L237.07 97.7481H240.919L243.79 98.7051L246.243 100.177L246.362 100.248H246.5H249.5H249.667L249.8 100.148L251.8 98.6481L252.075 98.4416L251.981 98.1107L251.023 94.7595L251.437 93.5182L252.854 92.1017L253 91.9552V91.7481V89.2481V89.1866L252.985 89.1268L252.485 87.1268L252.48 87.1082L252.474 87.09L251.572 84.3832L253.354 82.6017L253.451 82.5037L253.485 82.3694L253.985 80.3694L254.091 79.946L253.686 79.7839L251.186 78.7839L251.016 78.7158L250.842 78.7738L246.419 80.2481H242.707L241.354 78.8946L241.296 78.8372L241.224 78.8009L239.224 77.8009L239.084 77.731L238.929 77.7531L235.429 78.2531L235.416 78.2551L235.402 78.2578L230.521 79.234L227.226 78.2927L225.3 76.8481L225.167 76.7481H225H223H222.793L222.646 76.8946L221.146 78.3946L221.039 78.5016L221.01 78.6501L220.51 81.1501L220.484 81.2803L220.526 81.4062ZM23.9408 128.745L132.5 141.692V144.692L20 132.798V76.6019L139.5 34.4546V37.8953L21.8323 79.7771L21.5 79.8953V80.2481V84.2481V84.9567L22.1676 84.7192L132.5 45.4568V50.2481V54.2481V54.7481H133H139.5V136.748H136.5H133.03L24.0592 123.752L23.5 123.685V124.248V128.248V128.692L23.9408 128.745Z" fill="white" stroke="white"/>
<path d="M192 142.748H198.5V156.748H166.5V138.748H191.5V142.248V142.748H192Z" fill="white" stroke="white"/>
<path d="M134.5 143.748H165.5V146.748H134.5V143.748Z" fill="white" stroke="white"/>
<path d="M134.5 138.748H165.5V141.748H134.5V138.748Z" fill="white" stroke="white"/>
<path d="M137.5 18.2481H137.707L137.853 18.1018C150.942 5.02334 161.754 -0.379003 172.851 0.615441C183.95 1.60999 195.483 9.00792 210 21.9718V37.0733L199.5 33.8776V30.7481V30.2518L199.004 30.2481L133 29.7519V18.2481L137.5 18.2481Z" fill="white" stroke="white"/>
<path d="M147.5 130.748V56.4959C156.068 49.9899 162.714 46.8333 169.351 46.8442C175.991 46.8551 182.735 50.0358 191.5 56.5003V130.748H147.5Z" fill="white" stroke="white"/>
<path d="M137.7 46.3556L140.895 43.9483L146.311 51.1361L143.117 53.5433L137.7 46.3556Z" fill="white" stroke="white"/>
<path d="M200.57 45.3556L197.376 42.9483L191.96 50.1361L195.154 52.5433L200.57 45.3556Z" fill="white" stroke="white"/>
<path d="M143.68 41.8671L147.178 39.9278L151.542 47.7994L148.043 49.7387L143.68 41.8671Z" fill="white" stroke="white"/>
<path d="M194.591 40.8671L191.092 38.9278L186.729 46.7994L190.228 48.7387L194.591 40.8671Z" fill="white" stroke="white"/>
<path d="M150.646 38.3276L154.38 36.8941L157.606 45.2963L153.871 46.7298L150.646 38.3276Z" fill="white" stroke="white"/>
<path d="M187.625 37.3276L183.89 35.8941L180.665 44.2963L184.399 45.7298L187.625 37.3276Z" fill="white" stroke="white"/>
<path d="M157.606 35.8219L161.487 34.8542L163.665 43.5869L159.783 44.5546L157.606 35.8219Z" fill="white" stroke="white"/>
<path d="M180.665 34.8219L176.783 33.8542L174.606 42.5869L178.487 43.5546L180.665 34.8219Z" fill="white" stroke="white"/>
<path d="M166.5 33.7481H171.5V42.7481H166.5V33.7481Z" fill="white" stroke="white"/>
</svg>
